<svg width="106" height="18" viewBox="0 0 106 18" fill="none" xmlns="http://www.w3.org/2000/svg">
<path d="M8.04894 2.92705C8.3483 2.00574 9.6517 2.00574 9.95106 2.92705L10.7961 5.52786C10.93 5.93989 11.3139 6.21885 11.7472 6.21885H14.4818C15.4505 6.21885 15.8533 7.45846 15.0696 8.02786L12.8572 9.63525C12.5067 9.8899 12.3601 10.3413 12.494 10.7533L13.339 13.3541C13.6384 14.2754 12.5839 15.0415 11.8002 14.4721L9.58779 12.8647C9.2373 12.6101 8.7627 12.6101 8.41221 12.8647L6.19983 14.4721C5.41612 15.0415 4.36164 14.2754 4.66099 13.3541L5.50604 10.7533C5.63992 10.3413 5.49326 9.8899 5.14277 9.63525L2.93039 8.02787C2.14668 7.45846 2.54945 6.21885 3.51818 6.21885H6.25283C6.68606 6.21885 7.07001 5.93989 7.20389 5.52786L8.04894 2.92705Z" fill="#FFB907"/>
<path d="M30.0489 2.92705C30.3483 2.00574 31.6517 2.00574 31.9511 2.92705L32.7961 5.52786C32.93 5.93989 33.3139 6.21885 33.7472 6.21885H36.4818C37.4505 6.21885 37.8533 7.45846 37.0696 8.02786L34.8572 9.63525C34.5067 9.8899 34.3601 10.3413 34.494 10.7533L35.339 13.3541C35.6384 14.2754 34.5839 15.0415 33.8002 14.4721L31.5878 12.8647C31.2373 12.6101 30.7627 12.6101 30.4122 12.8647L28.1998 14.4721C27.4161 15.0415 26.3616 14.2754 26.661 13.3541L27.506 10.7533C27.6399 10.3413 27.4933 9.8899 27.1428 9.63525L24.9304 8.02787C24.1467 7.45846 24.5495 6.21885 25.5182 6.21885H28.2528C28.6861 6.21885 29.07 5.93989 29.2039 5.52786L30.0489 2.92705Z" fill="#FFB907"/>
<path d="M52.0489 2.92705C52.3483 2.00574 53.6517 2.00574 53.9511 2.92705L54.7961 5.52786C54.93 5.93989 55.3139 6.21885 55.7472 6.21885H58.4818C59.4505 6.21885 59.8533 7.45846 59.0696 8.02786L56.8572 9.63525C56.5067 9.8899 56.3601 10.3413 56.494 10.7533L57.339 13.3541C57.6384 14.2754 56.5839 15.0415 55.8002 14.4721L53.5878 12.8647C53.2373 12.6101 52.7627 12.6101 52.4122 12.8647L50.1998 14.4721C49.4161 15.0415 48.3616 14.2754 48.661 13.3541L49.506 10.7533C49.6399 10.3413 49.4933 9.8899 49.1428 9.63525L46.9304 8.02787C46.1467 7.45846 46.5495 6.21885 47.5182 6.21885H50.2528C50.6861 6.21885 51.07 5.93989 51.2039 5.52786L52.0489 2.92705Z" fill="#FFB907"/>
<path d="M74.0489 2.92705C74.3483 2.00574 75.6517 2.00574 75.9511 2.92705L76.7961 5.52786C76.93 5.93989 77.3139 6.21885 77.7472 6.21885H80.4818C81.4505 6.21885 81.8533 7.45846 81.0696 8.02786L78.8572 9.63525C78.5067 9.8899 78.3601 10.3413 78.494 10.7533L79.339 13.3541C79.6384 14.2754 78.5839 15.0415 77.8002 14.4721L75.5878 12.8647C75.2373 12.6101 74.7627 12.6101 74.4122 12.8647L72.1998 14.4721C71.4161 15.0415 70.3616 14.2754 70.661 13.3541L71.506 10.7533C71.6399 10.3413 71.4933 9.8899 71.1428 9.63525L68.9304 8.02787C68.1467 7.45846 68.5495 6.21885 69.5182 6.21885H72.2528C72.6861 6.21885 73.07 5.93989 73.2039 5.52786L74.0489 2.92705Z" fill="#FFB907"/>
<path d="M96.0489 2.92705C96.3483 2.00574 97.6517 2.00574 97.9511 2.92705L98.7961 5.52786C98.93 5.93989 99.3139 6.21885 99.7472 6.21885H102.482C103.451 6.21885 103.853 7.45846 103.07 8.02786L100.857 9.63525C100.507 9.8899 100.36 10.3413 100.494 10.7533L101.339 13.3541C101.638 14.2754 100.584 15.0415 99.8002 14.4721L97.5878 12.8647C97.2373 12.6101 96.7627 12.6101 96.4122 12.8647L94.1998 14.4721C93.4161 15.0415 92.3616 14.2754 92.661 13.3541L93.506 10.7533C93.6399 10.3413 93.4933 9.8899 93.1428 9.63525L90.9304 8.02787C90.1467 7.45846 90.5495 6.21885 91.5182 6.21885H94.2528C94.6861 6.21885 95.07 5.93989 95.2039 5.52786L96.0489 2.92705Z" fill="#FFB907"/>
</svg>
