<svg width="43" height="43" viewBox="0 0 43 43" fill="none" xmlns="http://www.w3.org/2000/svg">
<path d="M20.0795 20.2885C20.711 20.0281 21.1949 19.6202 21.4922 19.1362C21.7894 18.6523 21.9749 18.0209 21.9749 17.3514C21.9749 16.72 21.8632 16.1623 21.6777 15.6796C21.4541 15.1956 21.1569 14.8246 20.7478 14.5642C20.3196 14.2777 19.8405 14.0759 19.3364 13.9697C18.7347 13.8634 18.1245 13.8136 17.5135 13.821H10.75V27.945H17.6265C18.2579 27.945 18.8904 27.9081 19.447 27.6846C20.0349 27.5438 20.5903 27.2915 21.0831 26.9414C21.5671 26.6441 21.9381 26.1982 22.1973 25.6405C22.4577 25.1197 22.6064 24.4883 22.6064 23.7451C22.6064 22.8533 22.384 22.0721 21.9749 21.4775C21.529 20.9567 20.8965 20.5489 20.0795 20.2885ZM13.9094 16.2741H16.8453C17.1057 16.2741 17.3661 16.311 17.6265 16.311C17.8869 16.311 18.1461 16.4608 18.2947 16.5714C18.517 16.6764 18.6903 16.8629 18.7787 17.0922C18.8904 17.3146 18.9273 17.575 18.9273 17.9471C18.9273 18.5037 18.7775 18.9876 18.4065 19.248C17.9896 19.4921 17.515 19.6202 17.0319 19.619H13.9094V16.2741ZM19.3364 24.6369C19.2246 24.8973 19.076 25.046 18.8156 25.1946C18.592 25.3432 18.3316 25.455 18.0724 25.455C17.812 25.4919 17.5147 25.4919 17.2174 25.4919H13.8725V21.6631H17.2912C17.9606 21.6631 18.4814 21.8128 18.9273 22.147C19.3364 22.4443 19.5587 23.0019 19.5587 23.7082C19.485 24.0793 19.485 24.3765 19.3364 24.6369ZM33.572 21.292C33.4223 20.5489 33.0881 19.9163 32.6791 19.3586C32.2593 18.7974 31.7277 18.3294 31.1178 17.984C30.4096 17.6466 29.6359 17.4688 28.8514 17.4632C28.0702 17.4632 27.327 17.613 26.7693 17.8722C26.1342 18.129 25.5634 18.5223 25.0975 19.0245C24.6135 19.5084 24.2425 20.0649 23.9821 20.7344C23.7091 21.4198 23.5702 22.1512 23.5731 22.889C23.5731 23.6702 23.6848 24.4134 23.9452 25.0828C24.2045 25.7511 24.5767 26.2719 24.9857 26.7927C25.4696 27.2767 25.9881 27.6477 26.6576 27.9081C27.3552 28.1861 28.1005 28.3251 28.8514 28.3171C30.0036 28.3171 31.0061 28.0567 31.8241 27.5359C32.6791 27.0163 33.2368 26.1233 33.6458 24.8605H31.1916C31.0809 25.1577 30.8205 25.4919 30.4495 25.7523C30.0774 26.0127 29.5577 26.1613 29 26.1613C28.2188 26.1613 27.5874 25.9378 27.1795 25.5288C26.7693 25.1197 26.5089 24.3397 26.5089 23.5216H33.7944C33.7944 22.7415 33.7587 21.9603 33.572 21.292ZM26.3591 21.776C26.3591 21.5144 26.4709 21.254 26.5458 21.0316C26.6564 20.7712 26.7682 20.5108 26.9537 20.3253C27.1772 20.1018 27.4745 19.8794 27.7718 19.7308C28.069 19.581 28.4401 19.581 28.7754 19.581C29.4436 19.581 30.0393 19.8045 30.3366 20.1398C30.6339 20.5108 30.8943 21.0316 30.968 21.776H26.3591ZM31.5269 14.7877H25.7657V16.1992H31.5269V14.7877Z" fill="#FDFDFD"/>
</svg>
