<svg width="43" height="43" viewBox="0 0 43 43" fill="none" xmlns="http://www.w3.org/2000/svg">
<path d="M16.789 10.748H25.5352C28.8671 10.748 31.5743 13.4552 31.5743 16.7871V25.5333C31.5743 27.1349 30.938 28.671 29.8055 29.8035C28.673 30.9361 27.1369 31.5723 25.5352 31.5723H16.789C13.4572 31.5723 10.75 28.8652 10.75 25.5333V16.7871C10.75 15.1854 11.3863 13.6494 12.5188 12.5168C13.6513 11.3843 15.1874 10.748 16.789 10.748ZM16.5808 12.8305C15.5867 12.8305 14.6333 13.2254 13.9303 13.9283C13.2273 14.6313 12.8324 15.5847 12.8324 16.5788V25.7415C12.8324 27.8135 14.5088 29.4899 16.5808 29.4899H25.7435C26.7376 29.4899 27.691 29.095 28.394 28.392C29.0969 27.6891 29.4919 26.7357 29.4919 25.7415V16.5788C29.4919 14.5068 27.8155 12.8305 25.7435 12.8305H16.5808ZM26.6285 14.3923C26.9737 14.3923 27.3047 14.5294 27.5488 14.7735C27.7929 15.0176 27.93 15.3486 27.93 15.6938C27.93 16.039 27.7929 16.37 27.5488 16.6141C27.3047 16.8582 26.9737 16.9953 26.6285 16.9953C26.2833 16.9953 25.9523 16.8582 25.7082 16.6141C25.4641 16.37 25.327 16.039 25.327 15.6938C25.327 15.3486 25.4641 15.0176 25.7082 14.7735C25.9523 14.5294 26.2833 14.3923 26.6285 14.3923ZM21.1621 15.9541C22.5429 15.9541 23.8671 16.5026 24.8434 17.4789C25.8197 18.4553 26.3682 19.7795 26.3682 21.1602C26.3682 22.5409 25.8197 23.8651 24.8434 24.8414C23.8671 25.8178 22.5429 26.3663 21.1621 26.3663C19.7814 26.3663 18.4572 25.8178 17.4809 24.8414C16.5046 23.8651 15.9561 22.5409 15.9561 21.1602C15.9561 19.7795 16.5046 18.4553 17.4809 17.4789C18.4572 16.5026 19.7814 15.9541 21.1621 15.9541ZM21.1621 18.0365C20.3337 18.0365 19.5392 18.3656 18.9534 18.9514C18.3676 19.5372 18.0385 20.3317 18.0385 21.1602C18.0385 21.9886 18.3676 22.7831 18.9534 23.3689C19.5392 23.9547 20.3337 24.2838 21.1621 24.2838C21.9906 24.2838 22.7851 23.9547 23.3709 23.3689C23.9567 22.7831 24.2858 21.9886 24.2858 21.1602C24.2858 20.3317 23.9567 19.5372 23.3709 18.9514C22.7851 18.3656 21.9906 18.0365 21.1621 18.0365Z" fill="#FDFDFD"/>
</svg>
