<svg width="135" height="34" viewBox="0 0 135 34" fill="none" xmlns="http://www.w3.org/2000/svg">
<path d="M0 3.44727V10.5828L7.14021 3.44727H0Z" fill="#FDFDFD"/>
<path d="M0 10.582V26.1539C0 30.0701 3.1729 33.243 7.0891 33.243H7.63729V10.582H0Z" fill="#FDFDFD"/>
<path d="M14.0234 3.44727L21.1636 10.5828V3.44727H14.0234Z" fill="#FDFDFD"/>
<path d="M13.5273 33.243H14.0755C17.9917 33.243 21.1646 30.0701 21.1646 26.1539V10.582H13.5273V33.243Z" fill="#FDFDFD"/>
<path d="M14.0253 3.447H7.14062L10.583 0L13.6165 3.03355L14.0253 3.447Z" fill="#FDFDFD"/>
<path d="M37.5225 29.1114H34.3636L33.7179 30.598H33.0117L35.6179 24.791H36.3054L38.9023 30.598H38.1822L37.5272 29.1114H37.5225ZM37.2578 28.4982L35.9384 25.5111L34.6377 28.4982H37.2578Z" fill="#FDFDFD"/>
<path d="M43.6079 30.5941L42.3908 28.7358C42.2746 28.7451 42.1492 28.7544 42.0191 28.7544H40.4768V30.5941H39.8125V24.7871H42.0191C43.4685 24.7871 44.3094 25.5025 44.3094 26.7382C44.3094 27.6906 43.8355 28.3456 42.9993 28.615L44.3698 30.5987H43.6126L43.6079 30.5941ZM42.0191 28.1412C43.0737 28.1412 43.6683 27.6674 43.6683 26.7568C43.6683 25.8463 43.069 25.405 42.0191 25.405H40.4768V28.1412H42.0191Z" fill="#FDFDFD"/>
<path d="M49.4746 24.7871V25.4003H47.5746V30.594H46.9103V25.4003H45.0195V24.7871H49.4746Z" fill="#FDFDFD"/>
<path d="M57.0235 30.696L56.0526 29.7344C55.523 30.3058 54.9098 30.6217 54.2547 30.6217C53.2931 30.6217 52.5312 29.9481 52.5312 29.0376C52.5312 28.2014 53.1723 27.7601 53.8506 27.3931C53.4511 26.8681 53.2513 26.4314 53.2513 26.0087C53.2513 25.2886 53.8227 24.7637 54.6682 24.7637C55.5137 24.7637 56.0108 25.2468 56.0108 25.9251C56.0108 26.7148 55.2953 27.119 54.566 27.5092C54.9237 27.9226 55.3975 28.4058 55.9922 28.9865C56.2059 28.6706 56.4056 28.2896 56.5822 27.8576L57.0235 28.1874C56.833 28.6288 56.61 29.0236 56.3685 29.3581L57.3719 30.3476L57.0235 30.696ZM55.6856 29.3767C55.0398 28.731 54.5149 28.1967 54.1247 27.7415C53.5533 28.0574 53.0701 28.4151 53.0701 28.9958C53.0701 29.6508 53.5997 30.1153 54.2733 30.1153C54.7704 30.1153 55.2582 29.8506 55.6856 29.3767ZM54.2873 27.1608C54.9283 26.8309 55.4812 26.515 55.4812 25.9251C55.4812 25.493 55.1653 25.1957 54.6682 25.1957C54.1293 25.1957 53.7809 25.5534 53.7809 26.0087C53.7809 26.3478 53.9574 26.7148 54.2873 27.1608Z" fill="#FDFDFD"/>
<path d="M66.13 27.6906C66.13 29.3398 64.8292 30.594 63.1197 30.594H60.7969V24.7871H63.1429C64.8339 24.7871 66.13 26.0414 66.13 27.6906ZM65.461 27.6999C65.461 26.3898 64.4344 25.4003 63.129 25.4003H61.4612V29.9808H63.1522C64.4483 29.9808 65.4563 29.0006 65.4563 27.6999H65.461Z" fill="#FDFDFD"/>
<path d="M71.2825 24.7871V25.4003H68.0073V27.3515H70.934V27.9554H68.0073V29.9808H71.3939V30.594H67.3477V24.7871H71.2871H71.2825Z" fill="#FDFDFD"/>
<path d="M74.4265 25.4094C73.6785 25.4094 73.1908 25.7067 73.1908 26.2038C73.1908 27.7136 76.4613 26.9239 76.452 29.0329C76.452 29.9946 75.5972 30.6171 74.3522 30.6171C73.5067 30.6171 72.6751 30.2501 72.127 29.7298L72.4242 29.1584C72.9631 29.674 73.7018 29.9713 74.3568 29.9713C75.193 29.9713 75.718 29.6322 75.718 29.0655C75.7272 27.5138 72.4568 28.3361 72.4568 26.2549C72.4568 25.3444 73.2605 24.7637 74.4637 24.7637C75.1373 24.7637 75.8248 24.9774 76.3033 25.3026L76.0199 25.8925C75.4996 25.5534 74.8818 25.414 74.4172 25.414L74.4265 25.4094Z" fill="#FDFDFD"/>
<path d="M78.4768 24.7871V30.594H77.8125V24.7871H78.4768Z" fill="#FDFDFD"/>
<path d="M84.28 27.7598H84.87V29.8689C84.2986 30.3241 83.4949 30.6214 82.7145 30.6214C81.0328 30.6214 79.6855 29.33 79.6855 27.6948C79.6855 26.0595 81.0374 24.7773 82.747 24.7773C83.5507 24.7773 84.3311 25.0839 84.8886 25.5717L84.5076 26.0549C84.0338 25.6321 83.3974 25.3813 82.747 25.3813C81.4184 25.3813 80.3592 26.4079 80.3592 27.6948C80.3592 28.9816 81.4277 30.0175 82.7563 30.0175C83.2812 30.0175 83.834 29.8363 84.28 29.5297V27.7644V27.7598Z" fill="#FDFDFD"/>
<path d="M87.168 24.7871L90.6522 29.507V24.7871H91.3072V30.594H90.6289L87.1448 25.8835V30.594H86.4805V24.7871H87.168Z" fill="#FDFDFD"/>
<path d="M98.0531 25.3781C96.743 25.3781 95.6885 26.4001 95.6885 27.6823C95.6885 28.9645 96.743 29.9958 98.0531 29.9958C98.6942 29.9958 99.312 29.731 99.7719 29.2989L100.176 29.7403C99.6047 30.2792 98.8242 30.6183 98.0206 30.6183C96.3435 30.6183 95.0195 29.3268 95.0195 27.6823C95.0195 26.0378 96.3621 24.7695 98.0484 24.7695C98.8428 24.7695 99.614 25.0947 100.171 25.615L99.7719 26.0982C99.3259 25.6475 98.6942 25.3781 98.0531 25.3781Z" fill="#FDFDFD"/>
<path d="M106.765 27.6908C106.765 29.3261 105.422 30.6175 103.726 30.6175C102.031 30.6175 100.684 29.3261 100.684 27.6908C100.684 26.0556 102.026 24.7734 103.726 24.7734C105.427 24.7734 106.765 26.0603 106.765 27.6908ZM101.353 27.6908C101.353 28.9777 102.43 30.0136 103.726 30.0136C105.023 30.0136 106.082 28.9777 106.082 27.6908C106.082 26.404 105.018 25.3867 103.726 25.3867C102.435 25.3867 101.353 26.4087 101.353 27.6908Z" fill="#FDFDFD"/>
<path d="M110.292 30.0134C111.393 30.0134 112.057 29.349 112.057 28.2062V24.7871H112.722V28.2062C112.722 29.7253 111.811 30.6173 110.292 30.6173C108.773 30.6173 107.844 29.7207 107.844 28.2062V24.7871H108.508V28.2062C108.508 29.349 109.186 30.0134 110.292 30.0134Z" fill="#FDFDFD"/>
<path d="M118.146 30.5941L116.924 28.7358C116.808 28.7451 116.682 28.7544 116.552 28.7544H115.01V30.5941H114.346V24.7871H116.552C118.002 24.7871 118.843 25.5025 118.843 26.7382C118.843 27.6906 118.369 28.3456 117.533 28.615L118.903 30.5987H118.15L118.146 30.5941ZM116.552 28.1412C117.607 28.1412 118.202 27.6674 118.202 26.7568C118.202 25.8463 117.602 25.405 116.552 25.405H115.01V28.1412H116.552Z" fill="#FDFDFD"/>
<path d="M122.025 25.4094C121.277 25.4094 120.79 25.7067 120.79 26.2038C120.79 27.7136 124.055 26.9239 124.051 29.0329C124.051 29.9946 123.196 30.6171 121.951 30.6171C121.106 30.6171 120.274 30.2501 119.73 29.7298L120.028 29.1584C120.567 29.674 121.305 29.9713 121.96 29.9713C122.797 29.9713 123.321 29.6322 123.321 29.0655C123.331 27.5138 120.06 28.3361 120.06 26.2549C120.06 25.3444 120.864 24.7637 122.067 24.7637C122.741 24.7637 123.428 24.9774 123.907 25.3026L123.623 25.8925C123.098 25.5534 122.485 25.414 122.021 25.414L122.025 25.4094Z" fill="#FDFDFD"/>
<path d="M129.351 24.7871V25.4003H126.076V27.3515H129.002V27.9554H126.076V29.9808H129.462V30.594H125.416V24.7871H129.355H129.351Z" fill="#FDFDFD"/>
<path d="M132.497 25.4094C131.749 25.4094 131.261 25.7067 131.261 26.2038C131.261 27.7136 134.532 26.9239 134.522 29.0329C134.522 29.9946 133.667 30.6171 132.422 30.6171C131.577 30.6171 130.745 30.2501 130.197 29.7298L130.495 29.1584C131.033 29.674 131.772 29.9713 132.427 29.9713C133.263 29.9713 133.788 29.6322 133.788 29.0655C133.798 27.5138 130.527 28.3361 130.527 26.2549C130.527 25.3444 131.331 24.7637 132.534 24.7637C133.208 24.7637 133.895 24.9774 134.374 25.3026L134.09 25.8925C133.57 25.5534 132.952 25.414 132.488 25.414L132.497 25.4094Z" fill="#FDFDFD"/>
<path d="M37.7422 5.85156V17.196H43.9254V20.4432H33.9375V5.85621H37.7469L37.7422 5.85156Z" fill="#FDFDFD"/>
<path d="M57.1613 5.85156V8.88975H49.459V11.6167H56.4088V14.6363L49.459 14.6549V17.4004H57.3704V20.4386H45.6543V5.85156H57.1613Z" fill="#FDFDFD"/>
<path d="M62.345 5.85156L65.9871 16.4016L69.6478 5.85156H73.5593L67.8546 20.4386H63.9012L58.2383 5.85156H62.3403H62.345Z" fill="#FDFDFD"/>
<path d="M86.4453 5.85156V8.88975H78.743V11.6167H85.6927V14.6363L78.743 14.6549V17.4004H86.6497V20.4386H74.9336V5.85156H86.4453Z" fill="#FDFDFD"/>
<path d="M92.791 5.85156V17.196H98.9743V20.4432H88.9863V5.85621H92.7957L92.791 5.85156Z" fill="#FDFDFD"/>
<path d="M113.478 17.3625C115.164 17.3625 116.33 16.2197 116.33 14.3243V5.85547H120.14V14.3243C120.14 18.1755 117.557 20.6097 113.459 20.6097C109.362 20.6097 106.695 18.1755 106.695 14.3243V5.85547H110.505V14.3243C110.505 16.1965 111.754 17.3625 113.482 17.3625H113.478Z" fill="#FDFDFD"/>
<path d="M135.001 10.9749C135.001 14.4079 132.859 16.4055 129.134 16.4055H126.532V20.4425H122.723V5.85547H129.134C132.859 5.85547 135.001 7.72763 135.001 10.9749ZM131.377 11.1003C131.377 9.66482 130.481 8.89366 128.943 8.89366H126.527V13.3673H128.943C130.485 13.3673 131.377 12.5776 131.377 11.1003Z" fill="#FDFDFD"/>
</svg>
