<svg width="43" height="43" viewBox="0 0 43 43" fill="none" xmlns="http://www.w3.org/2000/svg">
<path d="M26.2025 13.9044C25.438 13.0314 25.0166 11.9104 25.0168 10.75H21.5603V24.6206C21.5342 25.3714 21.2175 26.0827 20.6769 26.6045C20.1364 27.1262 19.4144 27.4176 18.6631 27.4171C17.0747 27.4171 15.7548 26.1195 15.7548 24.5088C15.7548 22.5848 17.6116 21.1418 19.5244 21.7346V18.1999C15.6653 17.6853 12.2871 20.6832 12.2871 24.5088C12.2871 28.2337 15.3744 30.8848 18.6519 30.8848C22.1643 30.8848 25.0168 28.0324 25.0168 24.5088V17.4728C26.4184 18.4794 28.1011 19.0194 29.8267 19.0164V15.56C29.8267 15.56 27.7238 15.6606 26.2025 13.9044Z" fill="#FDFDFD"/>
</svg>
